<svg width="125" height="14" viewBox="0 0 125 14" fill="none" xmlns="http://www.w3.org/2000/svg">
<path d="M118 13L125 6.5L118 0L118 13Z" fill="#E02126"/>
<path d="M8.18372 9.732H3.28372L2.31772 12H0.441719L4.85172 2.2H6.64372L11.0677 12H9.16372L8.18372 9.732ZM7.58172 8.304L5.73372 4.02L3.89972 8.304H7.58172ZM16.7133 12.14C15.724 12.14 14.828 11.9253 14.0253 11.496C13.232 11.0573 12.6067 10.4553 12.1493 9.69C11.7013 8.92467 11.4773 8.06133 11.4773 7.1C11.4773 6.13867 11.706 5.27533 12.1633 4.51C12.6207 3.74467 13.246 3.14733 14.0393 2.718C14.842 2.27933 15.738 2.06 16.7273 2.06C17.53 2.06 18.2627 2.2 18.9253 2.48C19.588 2.76 20.148 3.166 20.6053 3.698L19.4293 4.804C18.72 4.03867 17.8473 3.656 16.8113 3.656C16.1393 3.656 15.5373 3.80533 15.0053 4.104C14.4733 4.39333 14.058 4.79933 13.7593 5.322C13.4607 5.84467 13.3113 6.43733 13.3113 7.1C13.3113 7.76267 13.4607 8.35533 13.7593 8.878C14.058 9.40067 14.4733 9.81133 15.0053 10.11C15.5373 10.3993 16.1393 10.544 16.8113 10.544C17.8473 10.544 18.72 10.1567 19.4293 9.382L20.6053 10.502C20.148 11.034 19.5833 11.44 18.9113 11.72C18.2487 12 17.516 12.14 16.7133 12.14ZM29.6992 10.474V12H22.3492V2.2H29.5032V3.726H24.1692V6.274H28.9012V7.772H24.1692V10.474H29.6992ZM34.7661 12.14C34.0101 12.14 33.2774 12.0327 32.5681 11.818C31.8681 11.6033 31.3128 11.3187 30.9021 10.964L31.5321 9.55C31.9334 9.86733 32.4234 10.1287 33.0021 10.334C33.5901 10.53 34.1781 10.628 34.7661 10.628C35.4941 10.628 36.0354 10.5113 36.3901 10.278C36.7541 10.0447 36.9361 9.73667 36.9361 9.354C36.9361 9.074 36.8334 8.84533 36.6281 8.668C36.4321 8.48133 36.1801 8.33667 35.8721 8.234C35.5641 8.13133 35.1441 8.01467 34.6121 7.884C33.8654 7.70667 33.2588 7.52933 32.7921 7.352C32.3348 7.17467 31.9381 6.89933 31.6021 6.526C31.2754 6.14333 31.1121 5.63 31.1121 4.986C31.1121 4.44467 31.2568 3.95467 31.5461 3.516C31.8448 3.068 32.2881 2.71333 32.8761 2.452C33.4734 2.19067 34.2014 2.06 35.0601 2.06C35.6574 2.06 36.2454 2.13467 36.8241 2.284C37.4028 2.43333 37.9021 2.648 38.3221 2.928L37.7481 4.342C37.3188 4.09 36.8708 3.89867 36.4041 3.768C35.9374 3.63733 35.4848 3.572 35.0461 3.572C34.3274 3.572 33.7908 3.69333 33.4361 3.936C33.0908 4.17867 32.9181 4.50067 32.9181 4.902C32.9181 5.182 33.0161 5.41067 33.2121 5.588C33.4174 5.76533 33.6741 5.90533 33.9821 6.008C34.2901 6.11067 34.7101 6.22733 35.2421 6.358C35.9701 6.526 36.5674 6.70333 37.0341 6.89C37.5008 7.06733 37.8974 7.34267 38.2241 7.716C38.5601 8.08933 38.7281 8.59333 38.7281 9.228C38.7281 9.76933 38.5788 10.2593 38.2801 10.698C37.9908 11.1367 37.5474 11.4867 36.9501 11.748C36.3528 12.0093 35.6248 12.14 34.7661 12.14ZM43.5708 12.14C42.8148 12.14 42.0821 12.0327 41.3728 11.818C40.6728 11.6033 40.1175 11.3187 39.7068 10.964L40.3368 9.55C40.7381 9.86733 41.2281 10.1287 41.8068 10.334C42.3948 10.53 42.9828 10.628 43.5708 10.628C44.2988 10.628 44.8401 10.5113 45.1948 10.278C45.5588 10.0447 45.7408 9.73667 45.7408 9.354C45.7408 9.074 45.6381 8.84533 45.4328 8.668C45.2368 8.48133 44.9848 8.33667 44.6768 8.234C44.3688 8.13133 43.9488 8.01467 43.4168 7.884C42.6701 7.70667 42.0635 7.52933 41.5968 7.352C41.1395 7.17467 40.7428 6.89933 40.4068 6.526C40.0801 6.14333 39.9168 5.63 39.9168 4.986C39.9168 4.44467 40.0615 3.95467 40.3508 3.516C40.6495 3.068 41.0928 2.71333 41.6808 2.452C42.2781 2.19067 43.0061 2.06 43.8648 2.06C44.4621 2.06 45.0501 2.13467 45.6288 2.284C46.2075 2.43333 46.7068 2.648 47.1268 2.928L46.5528 4.342C46.1235 4.09 45.6755 3.89867 45.2088 3.768C44.7421 3.63733 44.2895 3.572 43.8508 3.572C43.1321 3.572 42.5955 3.69333 42.2408 3.936C41.8955 4.17867 41.7228 4.50067 41.7228 4.902C41.7228 5.182 41.8208 5.41067 42.0168 5.588C42.2221 5.76533 42.4788 5.90533 42.7868 6.008C43.0948 6.11067 43.5148 6.22733 44.0468 6.358C44.7748 6.526 45.3721 6.70333 45.8388 6.89C46.3055 7.06733 46.7021 7.34267 47.0288 7.716C47.3648 8.08933 47.5328 8.59333 47.5328 9.228C47.5328 9.76933 47.3835 10.2593 47.0848 10.698C46.7955 11.1367 46.3521 11.4867 45.7548 11.748C45.1575 12.0093 44.4295 12.14 43.5708 12.14ZM56.6875 10.474V12H49.3375V2.2H56.4915V3.726H51.1575V6.274H55.8895V7.772H51.1575V10.474H56.6875ZM67.1635 12.14C66.1649 12.14 65.2642 11.9253 64.4615 11.496C63.6589 11.0573 63.0289 10.4553 62.5715 9.69C62.1142 8.91533 61.8855 8.052 61.8855 7.1C61.8855 6.148 62.1142 5.28933 62.5715 4.524C63.0289 3.74933 63.6589 3.14733 64.4615 2.718C65.2642 2.27933 66.1649 2.06 67.1635 2.06C68.1622 2.06 69.0629 2.27933 69.8655 2.718C70.6682 3.14733 71.2982 3.74467 71.7555 4.51C72.2129 5.27533 72.4415 6.13867 72.4415 7.1C72.4415 8.06133 72.2129 8.92467 71.7555 9.69C71.2982 10.4553 70.6682 11.0573 69.8655 11.496C69.0629 11.9253 68.1622 12.14 67.1635 12.14ZM67.1635 10.544C67.8169 10.544 68.4049 10.3993 68.9275 10.11C69.4502 9.81133 69.8609 9.40067 70.1595 8.878C70.4582 8.346 70.6075 7.75333 70.6075 7.1C70.6075 6.44667 70.4582 5.85867 70.1595 5.336C69.8609 4.804 69.4502 4.39333 68.9275 4.104C68.4049 3.80533 67.8169 3.656 67.1635 3.656C66.5102 3.656 65.9222 3.80533 65.3995 4.104C64.8769 4.39333 64.4662 4.804 64.1675 5.336C63.8689 5.85867 63.7195 6.44667 63.7195 7.1C63.7195 7.75333 63.8689 8.346 64.1675 8.878C64.4662 9.40067 64.8769 9.81133 65.3995 10.11C65.9222 10.3993 66.5102 10.544 67.1635 10.544ZM81.2778 12.14C80.5218 12.14 79.7892 12.0327 79.0798 11.818C78.3798 11.6033 77.8245 11.3187 77.4138 10.964L78.0438 9.55C78.4452 9.86733 78.9352 10.1287 79.5138 10.334C80.1018 10.53 80.6898 10.628 81.2778 10.628C82.0058 10.628 82.5472 10.5113 82.9018 10.278C83.2658 10.0447 83.4478 9.73667 83.4478 9.354C83.4478 9.074 83.3452 8.84533 83.1398 8.668C82.9438 8.48133 82.6918 8.33667 82.3838 8.234C82.0758 8.13133 81.6558 8.01467 81.1238 7.884C80.3772 7.70667 79.7705 7.52933 79.3038 7.352C78.8465 7.17467 78.4498 6.89933 78.1138 6.526C77.7872 6.14333 77.6238 5.63 77.6238 4.986C77.6238 4.44467 77.7685 3.95467 78.0578 3.516C78.3565 3.068 78.7998 2.71333 79.3878 2.452C79.9852 2.19067 80.7132 2.06 81.5718 2.06C82.1692 2.06 82.7572 2.13467 83.3358 2.284C83.9145 2.43333 84.4138 2.648 84.8338 2.928L84.2598 4.342C83.8305 4.09 83.3825 3.89867 82.9158 3.768C82.4492 3.63733 81.9965 3.572 81.5578 3.572C80.8392 3.572 80.3025 3.69333 79.9478 3.936C79.6025 4.17867 79.4298 4.50067 79.4298 4.902C79.4298 5.182 79.5278 5.41067 79.7238 5.588C79.9292 5.76533 80.1858 5.90533 80.4938 6.008C80.8018 6.11067 81.2218 6.22733 81.7538 6.358C82.4818 6.526 83.0792 6.70333 83.5458 6.89C84.0125 7.06733 84.4092 7.34267 84.7358 7.716C85.0718 8.08933 85.2398 8.59333 85.2398 9.228C85.2398 9.76933 85.0905 10.2593 84.7918 10.698C84.5025 11.1367 84.0592 11.4867 83.4618 11.748C82.8645 12.0093 82.1365 12.14 81.2778 12.14ZM87.0445 2.2H88.8645V12H87.0445V2.2ZM93.5032 3.74H90.2552V2.2H98.5712V3.74H95.3232V12H93.5032V3.74ZM107.287 10.474V12H99.9371V2.2H107.091V3.726H101.757V6.274H106.489V7.772H101.757V10.474H107.287Z" fill="black"/>
</svg>
