<svg width="179" height="19" viewBox="0 0 179 19" fill="none" xmlns="http://www.w3.org/2000/svg">
<path d="M170.021 19L179 10.1338L170.021 1.26769L170.021 19Z" fill="#E02126"/>
<path d="M17.6648 12.084H11.3648L10.1228 15H7.71078L13.3808 2.4H15.6848L21.3728 15H18.9248L17.6648 12.084ZM16.8908 10.248L14.5148 4.74L12.1568 10.248H16.8908ZM28.6314 15.18C27.3594 15.18 26.2074 14.904 25.1754 14.352C24.1554 13.788 23.3514 13.014 22.7634 12.03C22.1874 11.046 21.8994 9.936 21.8994 8.7C21.8994 7.464 22.1934 6.354 22.7814 5.37C23.3694 4.386 24.1734 3.618 25.1934 3.066C26.2254 2.502 27.3774 2.22 28.6494 2.22C29.6814 2.22 30.6234 2.4 31.4754 2.76C32.3274 3.12 33.0474 3.642 33.6354 4.326L32.1234 5.748C31.2114 4.764 30.0894 4.272 28.7574 4.272C27.8934 4.272 27.1194 4.464 26.4354 4.848C25.7514 5.22 25.2174 5.742 24.8334 6.414C24.4494 7.086 24.2574 7.848 24.2574 8.7C24.2574 9.552 24.4494 10.314 24.8334 10.986C25.2174 11.658 25.7514 12.186 26.4354 12.57C27.1194 12.942 27.8934 13.128 28.7574 13.128C30.0894 13.128 31.2114 12.63 32.1234 11.634L33.6354 13.074C33.0474 13.758 32.3214 14.28 31.4574 14.64C30.6054 15 29.6634 15.18 28.6314 15.18ZM45.3275 13.038V15H35.8775V2.4H45.0755V4.362H38.2175V7.638H44.3015V9.564H38.2175V13.038H45.3275ZM51.8421 15.18C50.8701 15.18 49.9281 15.042 49.0161 14.766C48.1161 14.49 47.4021 14.124 46.8741 13.668L47.6841 11.85C48.2001 12.258 48.8301 12.594 49.5741 12.858C50.3301 13.11 51.0861 13.236 51.8421 13.236C52.7781 13.236 53.4741 13.086 53.9301 12.786C54.3981 12.486 54.6321 12.09 54.6321 11.598C54.6321 11.238 54.5001 10.944 54.2361 10.716C53.9841 10.476 53.6601 10.29 53.2641 10.158C52.8681 10.026 52.3281 9.876 51.6441 9.708C50.6841 9.48 49.9041 9.252 49.3041 9.024C48.7161 8.796 48.2061 8.442 47.7741 7.962C47.3541 7.47 47.1441 6.81 47.1441 5.982C47.1441 5.286 47.3301 4.656 47.7021 4.092C48.0861 3.516 48.6561 3.06 49.4121 2.724C50.1801 2.388 51.1161 2.22 52.2201 2.22C52.9881 2.22 53.7441 2.316 54.4881 2.508C55.2321 2.7 55.8741 2.976 56.4141 3.336L55.6761 5.154C55.1241 4.83 54.5481 4.584 53.9481 4.416C53.3481 4.248 52.7661 4.164 52.2021 4.164C51.2781 4.164 50.5881 4.32 50.1321 4.632C49.6881 4.944 49.4661 5.358 49.4661 5.874C49.4661 6.234 49.5921 6.528 49.8441 6.756C50.1081 6.984 50.4381 7.164 50.8341 7.296C51.2301 7.428 51.7701 7.578 52.4541 7.746C53.3901 7.962 54.1581 8.19 54.7581 8.43C55.3581 8.658 55.8681 9.012 56.2881 9.492C56.7201 9.972 56.9361 10.62 56.9361 11.436C56.9361 12.132 56.7441 12.762 56.3601 13.326C55.9881 13.89 55.4181 14.34 54.6501 14.676C53.8821 15.012 52.9461 15.18 51.8421 15.18ZM63.1625 15.18C62.1905 15.18 61.2485 15.042 60.3365 14.766C59.4365 14.49 58.7225 14.124 58.1945 13.668L59.0045 11.85C59.5205 12.258 60.1505 12.594 60.8945 12.858C61.6505 13.11 62.4065 13.236 63.1625 13.236C64.0985 13.236 64.7945 13.086 65.2505 12.786C65.7185 12.486 65.9525 12.09 65.9525 11.598C65.9525 11.238 65.8205 10.944 65.5565 10.716C65.3045 10.476 64.9805 10.29 64.5845 10.158C64.1885 10.026 63.6485 9.876 62.9645 9.708C62.0045 9.48 61.2245 9.252 60.6245 9.024C60.0365 8.796 59.5265 8.442 59.0945 7.962C58.6745 7.47 58.4645 6.81 58.4645 5.982C58.4645 5.286 58.6505 4.656 59.0225 4.092C59.4065 3.516 59.9765 3.06 60.7325 2.724C61.5005 2.388 62.4365 2.22 63.5405 2.22C64.3085 2.22 65.0645 2.316 65.8085 2.508C66.5525 2.7 67.1945 2.976 67.7345 3.336L66.9965 5.154C66.4445 4.83 65.8685 4.584 65.2685 4.416C64.6685 4.248 64.0865 4.164 63.5225 4.164C62.5985 4.164 61.9085 4.32 61.4525 4.632C61.0085 4.944 60.7865 5.358 60.7865 5.874C60.7865 6.234 60.9125 6.528 61.1645 6.756C61.4285 6.984 61.7585 7.164 62.1545 7.296C62.5505 7.428 63.0905 7.578 63.7745 7.746C64.7105 7.962 65.4785 8.19 66.0785 8.43C66.6785 8.658 67.1885 9.012 67.6085 9.492C68.0405 9.972 68.2565 10.62 68.2565 11.436C68.2565 12.132 68.0645 12.762 67.6805 13.326C67.3085 13.89 66.7385 14.34 65.9705 14.676C65.2025 15.012 64.2665 15.18 63.1625 15.18ZM80.0268 13.038V15H70.5768V2.4H79.7748V4.362H72.9168V7.638H79.0008V9.564H72.9168V13.038H80.0268ZM93.496 15.18C92.212 15.18 91.054 14.904 90.022 14.352C88.99 13.788 88.18 13.014 87.592 12.03C87.004 11.034 86.71 9.924 86.71 8.7C86.71 7.476 87.004 6.372 87.592 5.388C88.18 4.392 88.99 3.618 90.022 3.066C91.054 2.502 92.212 2.22 93.496 2.22C94.78 2.22 95.938 2.502 96.97 3.066C98.002 3.618 98.812 4.386 99.4 5.37C99.988 6.354 100.282 7.464 100.282 8.7C100.282 9.936 99.988 11.046 99.4 12.03C98.812 13.014 98.002 13.788 96.97 14.352C95.938 14.904 94.78 15.18 93.496 15.18ZM93.496 13.128C94.336 13.128 95.092 12.942 95.764 12.57C96.436 12.186 96.964 11.658 97.348 10.986C97.732 10.302 97.924 9.54 97.924 8.7C97.924 7.86 97.732 7.104 97.348 6.432C96.964 5.748 96.436 5.22 95.764 4.848C95.092 4.464 94.336 4.272 93.496 4.272C92.656 4.272 91.9 4.464 91.228 4.848C90.556 5.22 90.028 5.748 89.644 6.432C89.26 7.104 89.068 7.86 89.068 8.7C89.068 9.54 89.26 10.302 89.644 10.986C90.028 11.658 90.556 12.186 91.228 12.57C91.9 12.942 92.656 13.128 93.496 13.128ZM111.643 15.18C110.671 15.18 109.729 15.042 108.817 14.766C107.917 14.49 107.203 14.124 106.675 13.668L107.485 11.85C108.001 12.258 108.631 12.594 109.375 12.858C110.131 13.11 110.887 13.236 111.643 13.236C112.579 13.236 113.275 13.086 113.731 12.786C114.199 12.486 114.433 12.09 114.433 11.598C114.433 11.238 114.301 10.944 114.037 10.716C113.785 10.476 113.461 10.29 113.065 10.158C112.669 10.026 112.129 9.876 111.445 9.708C110.485 9.48 109.705 9.252 109.105 9.024C108.517 8.796 108.007 8.442 107.575 7.962C107.155 7.47 106.945 6.81 106.945 5.982C106.945 5.286 107.131 4.656 107.503 4.092C107.887 3.516 108.457 3.06 109.213 2.724C109.981 2.388 110.917 2.22 112.021 2.22C112.789 2.22 113.545 2.316 114.289 2.508C115.033 2.7 115.675 2.976 116.215 3.336L115.477 5.154C114.925 4.83 114.349 4.584 113.749 4.416C113.149 4.248 112.567 4.164 112.003 4.164C111.079 4.164 110.389 4.32 109.933 4.632C109.489 4.944 109.267 5.358 109.267 5.874C109.267 6.234 109.393 6.528 109.645 6.756C109.909 6.984 110.239 7.164 110.635 7.296C111.031 7.428 111.571 7.578 112.255 7.746C113.191 7.962 113.959 8.19 114.559 8.43C115.159 8.658 115.669 9.012 116.089 9.492C116.521 9.972 116.737 10.62 116.737 11.436C116.737 12.132 116.545 12.762 116.161 13.326C115.789 13.89 115.219 14.34 114.451 14.676C113.683 15.012 112.747 15.18 111.643 15.18ZM119.057 2.4H121.397V15H119.057V2.4ZM127.361 4.38H123.185V2.4H133.877V4.38H129.701V15H127.361V4.38ZM145.083 13.038V15H135.633V2.4H144.831V4.362H137.973V7.638H144.057V9.564H137.973V13.038H145.083Z" fill="#F9F9F9"/>
</svg>
