<svg width="26" height="25" viewBox="0 0 26 25" fill="none" xmlns="http://www.w3.org/2000/svg">
<path d="M21.7848 2.49998H3.66965C3.0492 2.49998 2.54541 2.99477 2.54541 3.60415V21.3958C2.54541 22.0052 3.0492 22.5 3.66965 22.5H12.7272V14.5833H10.2931V11.6666H12.7272V9.5104C12.7272 6.92706 14.5515 5.52081 16.9007 5.52081C18.025 5.52081 19.234 5.60415 19.5151 5.64061V8.33852H17.6431C16.3651 8.33852 16.1212 8.93227 16.1212 9.80727V11.6666H19.1651L18.7674 14.5833H16.1212V22.5H21.7848C22.4053 22.5 22.909 22.0052 22.909 21.3958V3.60415C22.909 2.99477 22.4053 2.49998 21.7848 2.49998Z" fill="white"/>
</svg>
