<svg width="178" height="19" viewBox="0 0 178 19" fill="none" xmlns="http://www.w3.org/2000/svg">
<path d="M169.021 19L178 10.1338L169.021 1.26769L169.021 19Z" fill="#E02126"/>
<path d="M92.6436 5.44434L91.3867 5.14551L91.5625 4.1084H96.3525L96.5283 5.14551L95.2803 5.44434V9.07422H99.8857V5.44434L98.6377 5.14551L98.8135 4.1084H103.612L103.788 5.14551L102.522 5.44434V14.6641L103.788 14.9629L103.612 16H98.8135L98.6377 14.9629L99.8857 14.6641V10.3838H95.2803V14.6641L96.5283 14.9629L96.3525 16H91.5625L91.3867 14.9629L92.6436 14.6641V5.44434ZM110.468 16.1934C108.692 16.1934 107.356 15.792 106.46 14.9893C105.563 14.1865 105.115 12.9854 105.115 11.3857V10.6914C105.115 8.38281 105.602 6.67773 106.574 5.57617C107.547 4.46875 108.959 3.91504 110.811 3.91504C112.58 3.91504 113.919 4.31641 114.827 5.11914C115.741 5.92187 116.198 7.12598 116.198 8.73145V9.41699C116.198 11.6729 115.721 13.3662 114.766 14.4971C113.811 15.6279 112.378 16.1934 110.468 16.1934ZM113.562 9.11816C113.562 7.84668 113.301 6.87988 112.779 6.21777C112.264 5.55566 111.499 5.22461 110.485 5.22461C110.046 5.22461 109.627 5.2832 109.229 5.40039C108.836 5.51758 108.517 5.6582 108.271 5.82227C108.165 6.19727 108.051 6.7627 107.928 7.51855C107.811 8.27441 107.752 9.04199 107.752 9.82129V10.9902C107.752 12.2148 108.036 13.1699 108.604 13.8555C109.179 14.541 109.923 14.8838 110.837 14.8838C111.306 14.8838 111.742 14.8193 112.146 14.6904C112.557 14.5615 112.858 14.4238 113.052 14.2773C113.175 13.8379 113.289 13.2432 113.395 12.4932C113.506 11.7373 113.562 11.002 113.562 10.2871V9.11816ZM118.554 5.44434L117.297 5.14551L117.473 4.1084H122.254L125.515 12.7305H125.655L128.793 4.1084H133.671L133.847 5.14551L132.599 5.44434V14.6641L133.847 14.9629L133.671 16H128.881L128.705 14.9629L129.962 14.6641V6.02441H129.821L126.095 16H124.293L120.452 6.02441H120.312V14.6641L121.56 14.9629L121.384 16H117.473L117.297 14.9629L118.554 14.6641V5.44434ZM138.927 10.4365V14.6904H142.451L143.181 12.9941L144.358 13.1963L144.147 16H135.209L135.033 14.9629L136.29 14.6641V5.44434L135.033 5.14551L135.209 4.1084H143.884L144.095 6.9209L142.926 7.11426L142.196 5.41797H138.927V9.12695H141.449L141.748 8.14258L142.794 8.31836V11.2539L141.748 11.4297L141.449 10.4365H138.927Z" fill="#F9F9F9"/>
</svg>
