<svg width="26" height="25" viewBox="0 0 26 25" fill="none" xmlns="http://www.w3.org/2000/svg">
<path d="M21.6443 2.49998H4.64902C3.72075 2.49998 2.90918 3.1564 2.90918 4.05768V20.786C2.90918 21.6925 3.72075 22.5 4.64902 22.5H21.639C22.5726 22.5 23.2728 21.6872 23.2728 20.786V4.05768C23.2781 3.1564 22.5726 2.49998 21.6443 2.49998ZM9.22142 19.171H6.304V10.2624H9.22142V19.171ZM7.86349 8.90789H7.84228C6.9087 8.90789 6.304 8.22542 6.304 7.37104C6.304 6.50102 6.92461 5.83418 7.87941 5.83418C8.8342 5.83418 9.41768 6.49581 9.4389 7.37104C9.4389 8.22542 8.8342 8.90789 7.86349 8.90789ZM19.8833 19.171H16.9658V14.2999C16.9658 13.1329 16.5415 12.3359 15.4859 12.3359C14.6797 12.3359 14.2023 12.8725 13.9901 13.3934C13.9105 13.581 13.8893 13.8363 13.8893 14.0967V19.171H10.9719V10.2624H13.8893V11.5023C14.3136 10.9084 14.9767 10.054 16.5203 10.054C18.4352 10.054 19.8833 11.2939 19.8833 13.9665V19.171Z" fill="white"/>
</svg>
