<svg width="26" height="25" viewBox="0 0 26 25" fill="none" xmlns="http://www.w3.org/2000/svg">
<path d="M17.1515 4.16665C18.2758 4.16665 19.3417 4.60415 20.1477 5.39061C20.9538 6.17706 21.394 7.22915 21.394 8.33331V16.6666C21.394 17.7708 20.9485 18.8177 20.1477 19.6094C19.347 20.401 18.2758 20.8333 17.1515 20.8333H8.66669C7.54245 20.8333 6.47654 20.3958 5.67048 19.6094C4.86442 18.8229 4.42426 17.7708 4.42426 16.6666V8.33331C4.42426 7.22915 4.86972 6.18227 5.67048 5.39061C6.47123 4.59894 7.54245 4.16665 8.66669 4.16665H17.1515ZM17.1515 2.49998H8.66669C5.40002 2.49998 2.72729 5.12498 2.72729 8.33331V16.6666C2.72729 19.875 5.40002 22.5 8.66669 22.5H17.1515C20.4182 22.5 23.0909 19.875 23.0909 16.6666V8.33331C23.0909 5.12498 20.4182 2.49998 17.1515 2.49998Z" fill="white"/>
<path d="M18.4242 8.33328C17.7189 8.33328 17.1515 7.77599 17.1515 7.08328C17.1515 6.39057 17.7189 5.83328 18.4242 5.83328C19.1242 5.83328 19.6969 6.39057 19.6969 7.08328C19.6969 7.77599 19.1242 8.33328 18.4242 8.33328ZM12.909 9.16662C14.781 9.16662 16.303 10.6614 16.303 12.4999C16.303 14.3385 14.781 15.8333 12.909 15.8333C11.0371 15.8333 9.51509 14.3385 9.51509 12.4999C9.51509 10.6614 11.0371 9.16662 12.909 9.16662ZM12.909 7.49995C10.0984 7.49995 7.81812 9.73953 7.81812 12.4999C7.81812 15.2604 10.0984 17.5 12.909 17.5C15.7196 17.5 17.9999 15.2604 17.9999 12.4999C17.9999 9.73953 15.7196 7.49995 12.909 7.49995Z" fill="white"/>
</svg>
