<svg width="93" height="26" viewBox="0 0 93 26" fill="none" xmlns="http://www.w3.org/2000/svg">
<path d="M12.0891 16.1567C11.8374 15.3454 11.4562 14.641 10.9528 14.0432C10.453 13.442 9.83091 12.9723 9.09377 12.6307C8.36023 12.2927 7.50803 12.122 6.53716 12.122C5.9942 12.122 5.50876 12.1753 5.06648 12.2856C4.63139 12.3995 4.24304 12.5418 3.90863 12.7161C3.57063 12.8905 3.29016 13.079 3.06002 13.2818C2.8227 13.4847 2.8227 13.4847 2.8227 13.4847C2.65729 13.6768 2.51706 13.4633 2.51706 13.0114V8.22247C2.51706 7.77061 2.1431 7.40414 1.69362 7.40414H0.827034C0.373963 7.40414 0 7.77061 0 8.22247C0 8.22247 0 19.0564 0 22.7886C0 24.5107 2.39121 25.6706 5.17076 25.6706C6.2495 25.6706 7.23475 25.4998 8.1337 25.1582C9.02545 24.8202 9.79855 24.3435 10.4386 23.7351C11.0822 23.1231 11.5821 22.3973 11.9345 21.5505C12.2832 20.7037 12.4666 19.768 12.4666 18.7575C12.4666 17.8324 12.3408 16.9679 12.0891 16.1567ZM9.53606 20.7037C9.31312 21.2836 8.99309 21.7817 8.57957 22.198C8.15887 22.6107 7.66624 22.9345 7.09091 23.1658C5.05929 23.9877 2.50987 23.2227 2.50987 21.8743V18.0352C2.50987 17.5549 2.58538 17.0888 2.7364 16.6405C2.88383 16.1887 3.11037 15.7937 3.41601 15.4486C3.72165 15.1071 4.09921 14.8331 4.55228 14.6196C5.00535 14.4097 5.53753 14.303 6.14881 14.303C6.81763 14.303 7.37858 14.4275 7.84244 14.673C8.3027 14.9221 8.68745 15.2529 8.99309 15.6692C9.29514 16.0819 9.51808 16.5623 9.66191 17.1066C9.79855 17.651 9.86687 18.2167 9.86687 18.8073C9.86687 19.494 9.7554 20.1273 9.53606 20.7037Z" fill="white"/>
<path d="M15.6308 15.8611C15.6308 15.4092 15.6308 14.6727 15.6308 14.2244C15.6308 14.2244 15.6308 14.043 15.6308 13.6445C15.6308 13.3954 15.6272 13.1428 15.62 12.8795C15.6128 12.6091 15.8609 12.4134 16.2313 12.4134C16.688 12.4134 17.2705 12.7123 17.533 13.0859C17.533 13.0859 18.0616 13.8366 18.4068 13.616C19.4927 12.9187 20.7153 12.2213 22.337 12.2213C22.6175 12.2213 22.8728 12.2391 23.1065 12.2747C23.3402 12.3138 23.7214 12.5664 23.7214 12.8653C23.7214 13.1677 23.7214 14.0003 23.7214 14.0003C23.7214 14.4486 23.3546 14.7474 22.9087 14.6621C22.9087 14.6621 22.4377 14.5731 21.9163 14.5731C21.3769 14.5731 20.8771 14.6763 20.4204 14.8755C19.9638 15.0783 19.5682 15.3594 19.2302 15.7188C18.8958 16.0781 18.6297 16.498 18.4355 16.9783C18.2378 17.4586 18.1371 17.9638 18.1371 18.4975V24.4535C18.1371 24.9018 17.7667 25.2718 17.3101 25.2718H16.4507C15.994 25.2718 15.6236 24.9018 15.6236 24.4535V15.8611H15.6308Z" fill="white"/>
<path d="M44.0737 12.4133H42.9338C42.4735 12.4133 41.9665 12.7548 41.7939 13.1747L38.3635 21.6959C38.2844 21.8987 38.1586 22.0019 38.0327 22.009C37.9069 22.0019 37.781 21.8987 37.7019 21.6959L34.2715 13.1747C34.0989 12.7548 33.5919 12.4133 33.1317 12.4133H31.9882C31.5315 12.4133 31.3086 12.7513 31.4884 13.1676L36.411 24.5245C36.5908 24.9372 37.1122 25.2752 37.5653 25.2752H38.4966C38.9497 25.2752 39.4674 24.9372 39.6508 24.5245L44.5735 13.1676C44.7569 12.7513 44.5339 12.4133 44.0737 12.4133Z" fill="white"/>
<path d="M31.1683 10.428H32.3621C32.8008 10.428 33.0453 10.1042 32.9051 9.75551C32.7649 9.40683 32.4592 8.6312 32.2686 8.17578C32.0816 7.71681 31.5639 7.40727 31.0964 7.40727H29.899C29.4495 7.40727 29.1978 7.77018 29.3452 8.11886C29.4927 8.46398 29.8379 9.28942 30.0069 9.68079C30.1795 10.0686 30.7081 10.428 31.1683 10.428Z" fill="white"/>
<path d="M62.4087 13.2354C61.4486 12.4349 60.1289 12.0328 58.4533 12.0328C57.7449 12.0328 57.1228 12.0826 56.5799 12.1858C56.0405 12.2854 55.5515 12.4135 55.1272 12.5701C54.6957 12.7302 54.3253 12.8974 54.0089 13.0824C53.6925 13.271 53.6925 13.271 53.6925 13.271C53.4228 13.4738 53.4084 13.9434 53.6673 14.3134L54.0017 14.7902C54.1671 15.0072 54.4584 15.1638 55.0481 14.8685C55.2854 14.7475 55.5551 14.6372 55.8284 14.5091C56.4037 14.2423 57.4105 14.1071 58.3994 14.1071C59.4062 14.1071 60.1181 14.3134 60.6539 14.7262C61.1897 15.1353 61.276 15.9679 61.276 15.9679C61.3227 16.4055 61.3119 16.9712 61.3119 17.2274C59.0754 16.8503 56.0693 16.5976 54.052 18.309C51.9233 20.1129 52.0132 24.1084 55.7097 25.279C56.605 25.5636 57.5939 25.6704 58.6726 25.5992C62.3691 25.3644 63.8434 23.5107 63.8434 21.4756C63.8434 19.6468 63.8434 16.651 63.8434 16.651C63.847 15.178 63.3687 14.0395 62.4087 13.2354ZM61.3191 21.625C61.2005 22.9806 58.9855 24.0124 56.7201 23.219C54.951 22.6105 55.0157 21.3226 55.2063 20.675C55.2998 20.369 55.4652 20.0951 55.7097 19.846C56.6266 18.9032 59.6435 18.711 60.8301 19.2056C61.0459 19.2945 61.3227 19.4974 61.3227 20.2018C61.3191 20.2018 61.3227 21.5254 61.3191 21.625Z" fill="white"/>
<path d="M26.3753 13.2316C26.3753 12.7833 26.7493 12.4133 27.2023 12.4133H28.0617C28.522 12.4133 28.8924 12.7833 28.8924 13.2316V24.4569C28.8924 24.9052 28.5184 25.2752 28.0617 25.2752H27.2023C26.7493 25.2752 26.3753 24.9052 26.3753 24.4569V13.2316Z" fill="white"/>
<path d="M47.231 13.2316C47.231 12.7833 47.6013 12.4133 48.058 12.4133H48.921C49.3741 12.4133 49.748 12.7833 49.748 13.2316V24.4569C49.748 24.9052 49.3776 25.2752 48.921 25.2752H48.058C47.6013 25.2752 47.231 24.9052 47.231 24.4569V13.2316Z" fill="white"/>
<path fill-rule="evenodd" clip-rule="evenodd" d="M67.2271 25.6705H89.3053C91.1751 25.6705 92.689 24.169 92.689 22.3225V0H67.2271V25.6705ZM69.8054 21.7387C69.6328 21.3296 69.5429 20.8777 69.5429 20.3796C69.5429 19.9277 69.604 19.4972 69.7334 19.0881C69.8593 18.6825 70.0463 18.3267 70.2908 18.0171C70.5353 17.7076 70.8409 17.4585 71.2041 17.27C71.5637 17.085 71.9844 16.9782 72.459 16.9498C72.7251 16.9355 72.9661 16.9462 73.1818 16.9889C73.394 17.0352 73.5845 17.0921 73.7499 17.1704C73.9153 17.2486 74.052 17.334 74.167 17.4265L74.2821 17.519C74.3648 17.6115 74.4331 17.5012 74.4331 17.2806V15.032C74.4331 14.8114 74.6165 14.63 74.8395 14.63H75.2638C75.4867 14.63 75.6701 14.8114 75.6701 15.032V22.0163C75.6701 22.863 74.4943 23.4964 73.1279 23.5746C72.5957 23.6031 72.1139 23.5462 71.6716 23.4038C71.2329 23.2651 70.8553 23.0516 70.5389 22.7705C70.2261 22.4895 69.9779 22.1443 69.8054 21.7387ZM70.92 19.4901C70.8517 19.7641 70.8194 20.0416 70.8194 20.3334C70.8194 20.6714 70.8733 20.9773 70.9776 21.2477C71.089 21.5288 71.2437 21.7636 71.4486 21.9558C71.6536 22.1479 71.8981 22.2938 72.1786 22.3898C73.1746 22.735 74.4295 22.2902 74.4295 21.6284V19.7427C74.4295 19.5079 74.39 19.2802 74.3181 19.0632C74.2462 18.8461 74.1347 18.6576 73.9837 18.4975C73.8362 18.3374 73.6493 18.2128 73.4263 18.1203C73.2034 18.0314 72.9409 17.9922 72.6424 18.01C72.3152 18.0314 72.0383 18.1061 71.8118 18.2413C71.5889 18.3765 71.3983 18.5508 71.2473 18.7643C71.0998 18.9778 70.9884 19.2197 70.92 19.4901ZM89.3483 17.0535H85.357C85.1628 17.0535 85.0945 17.235 85.0945 17.4271V17.7865C85.0945 17.9786 85.1628 18.1849 85.357 18.1849H87.8525C87.9783 18.1849 88.0538 18.3023 87.9783 18.4055L84.8068 22.675C84.5767 22.9846 84.8032 23.4009 85.1916 23.4009H89.6252C89.8194 23.4009 89.9057 23.2657 89.9057 23.07V22.7106C89.9057 22.5185 89.8194 22.2659 89.6252 22.2659H86.6874C86.5616 22.2659 86.4861 22.1698 86.5616 22.0702L89.7331 17.79C89.9632 17.4805 89.7367 17.0535 89.3483 17.0535ZM82.5524 23.1766C82.7286 23.109 82.8185 22.9098 82.7358 22.739L82.6388 22.2444C82.574 22.1057 82.4158 22.031 82.2648 22.0737C81.8585 22.184 80.8732 22.3227 80.4705 22.3263C79.8448 22.337 79.3306 22.127 79.0897 21.8495C78.9063 21.6218 78.8056 21.2838 78.8056 20.7643H82.2756C82.7862 20.7643 83.1997 20.3979 83.1997 19.9425V19.3483C83.1997 18.6154 82.9624 17.982 82.4518 17.5266C81.9412 17.057 81.2975 16.8186 80.4597 16.8186C79.6363 16.8186 78.9387 17.0534 78.4137 17.5195C77.9031 17.9749 77.6909 18.6047 77.6909 19.3376V20.928C77.6909 21.6752 77.9031 22.3049 78.4137 22.7603C78.9387 23.2264 79.6363 23.4755 80.4597 23.4755C81.0962 23.4755 81.9232 23.4043 82.5524 23.1766ZM82.1066 19.4693C82.1066 19.6009 82.0167 19.7183 81.898 19.7183L79.0034 19.7148C78.9207 19.7148 78.856 19.6329 78.856 19.5404C78.856 18.4802 79.345 17.8611 80.5172 17.8611C81.5852 17.8611 82.1066 18.3805 82.1066 19.4693Z" fill="white"/>
</svg>
