<svg width="119" height="19" viewBox="0 0 119 19" fill="none" xmlns="http://www.w3.org/2000/svg">
<path d="M110.021 19L119 10.1338L110.021 1.26769L110.021 19Z" fill="#E02126"/>
<path d="M4.34961 11.2012C4.34961 12.4199 4.58105 13.3398 5.04395 13.9609C5.50684 14.5762 6.16309 14.8838 7.0127 14.8838C7.44043 14.8838 7.8418 14.8369 8.2168 14.7432C8.5918 14.6436 8.8877 14.5264 9.10449 14.3916C9.29785 14.0283 9.45898 13.5859 9.58789 13.0645C9.72266 12.5371 9.79004 11.9893 9.79004 11.4209V5.44434L8.5332 5.14551L8.70898 4.1084H12.541L12.7168 5.14551L11.4688 5.44434V11.2188C11.4688 12.8945 11.0703 14.1426 10.2734 14.9629C9.47656 15.7832 8.24609 16.1934 6.58203 16.1934C4.90039 16.1934 3.66699 15.8154 2.88184 15.0596C2.10254 14.3037 1.71289 13.1787 1.71289 11.6846V5.44434L0.447266 5.14551L0.623047 4.1084H5.42188L5.59766 5.14551L4.34961 5.44434V11.2012ZM18.5879 8.85449C19.9414 9.61621 20.873 10.2871 21.3828 10.8672C21.8984 11.4414 22.1562 12.1416 22.1562 12.9678C22.1562 13.9932 21.7285 14.7871 20.873 15.3496C20.0176 15.9121 18.8486 16.1934 17.3662 16.1934C16.6865 16.1934 16.0332 16.1436 15.4062 16.0439C14.7793 15.9443 14.2461 15.8096 13.8066 15.6396L13.6221 13.1875L15.0898 12.9678L15.8281 14.6992C16.0684 14.7578 16.332 14.8047 16.6191 14.8398C16.9121 14.8691 17.2051 14.8838 17.498 14.8838C17.8086 14.8838 18.1191 14.8604 18.4297 14.8135C18.7402 14.7666 19.0156 14.708 19.2559 14.6377C19.3262 14.4971 19.3877 14.3213 19.4404 14.1104C19.4932 13.8994 19.5195 13.6914 19.5195 13.4863C19.5195 13.0176 19.335 12.6074 18.9658 12.2559C18.5967 11.9043 17.9229 11.4355 16.9443 10.8496C15.4502 9.98828 14.4951 9.29395 14.0791 8.7666C13.6631 8.23926 13.4521 7.62109 13.4463 6.91211C13.4463 5.96289 13.8594 5.22754 14.6855 4.70605C15.5176 4.17871 16.6631 3.91504 18.1221 3.91504C18.7139 3.91504 19.2939 3.95605 19.8623 4.03809C20.4365 4.12012 20.9463 4.23145 21.3916 4.37207L21.5762 6.9209L20.2139 7.11426L19.4844 5.38281C19.2559 5.33008 19.0098 5.29199 18.7461 5.26855C18.4883 5.23926 18.2334 5.22461 17.9814 5.22461C17.6885 5.22461 17.3955 5.24512 17.1025 5.28613C16.8096 5.32715 16.5254 5.38867 16.25 5.4707C16.2031 5.62305 16.1621 5.79297 16.127 5.98047C16.0977 6.16797 16.083 6.34668 16.083 6.5166C16.083 6.88574 16.2266 7.20801 16.5137 7.4834C16.8066 7.75879 17.498 8.21582 18.5879 8.85449ZM26.5859 11.2012C26.5859 12.4199 26.8174 13.3398 27.2803 13.9609C27.7432 14.5762 28.3994 14.8838 29.249 14.8838C29.6768 14.8838 30.0781 14.8369 30.4531 14.7432C30.8281 14.6436 31.124 14.5264 31.3408 14.3916C31.5342 14.0283 31.6953 13.5859 31.8242 13.0645C31.959 12.5371 32.0264 11.9893 32.0264 11.4209V5.44434L30.7695 5.14551L30.9453 4.1084H34.7773L34.9531 5.14551L33.7051 5.44434V11.2188C33.7051 12.8945 33.3066 14.1426 32.5098 14.9629C31.7129 15.7832 30.4824 16.1934 28.8184 16.1934C27.1367 16.1934 25.9033 15.8154 25.1182 15.0596C24.3389 14.3037 23.9492 13.1787 23.9492 11.6846V5.44434L22.6836 5.14551L22.8594 4.1084H27.6582L27.834 5.14551L26.5859 5.44434V11.2012ZM34.7598 14.9629L35.6387 14.7168L39.4443 4.1084H41.7559L45.4736 14.7168L46.3438 14.9629L46.168 16H41.8262L41.6504 14.9629L42.8105 14.7168L42.0898 12.6074H38.1084L37.3701 14.7168L38.5303 14.9629L38.3545 16H34.9355L34.7598 14.9629ZM38.5566 11.2979H41.6504L40.1914 7.00879H40.0508L38.5566 11.2979ZM39.207 2.79004L41.6504 0.320312L44.1289 0.408203V0.988281L40.6572 3.16797L39.207 3.07129V2.79004ZM47.9873 5.44434L46.7305 5.14551L46.9062 4.1084H51.8193C53.1377 4.1084 54.1572 4.38086 54.8779 4.92578C55.5986 5.46484 55.959 6.26465 55.959 7.3252C55.959 8.02832 55.792 8.63184 55.458 9.13574C55.124 9.63379 54.6348 10.0352 53.9902 10.3398L53.9375 10.5068L56.1523 14.6553L57.2334 14.9629L57.0576 16H54.3418L51.6172 10.8057H50.624V14.6641L51.8721 14.9629L51.6963 16H46.9062L46.7305 14.9629L47.9873 14.6641V5.44434ZM50.624 5.41797V9.49609H51.2656C51.6758 9.49609 52.0332 9.47559 52.3379 9.43457C52.6426 9.39355 52.8828 9.33496 53.0586 9.25879C53.1289 9.01855 53.1846 8.74316 53.2256 8.43262C53.2666 8.11621 53.2871 7.7998 53.2871 7.4834C53.2871 6.68652 53.1055 6.14453 52.7422 5.85742C52.3789 5.56445 51.8223 5.41797 51.0723 5.41797H50.624ZM59.2373 5.44434L57.9805 5.14551L58.1562 4.1084H62.9463L63.1221 5.14551L61.874 5.44434V14.6641L63.1221 14.9629L62.9463 16H58.1562L57.9805 14.9629L59.2373 14.6641V5.44434ZM69.8018 16.1934C68.0264 16.1934 66.6904 15.792 65.7939 14.9893C64.8975 14.1865 64.4492 12.9854 64.4492 11.3857V10.6914C64.4492 8.38281 64.9355 6.67773 65.9082 5.57617C66.8809 4.46875 68.293 3.91504 70.1445 3.91504C71.9141 3.91504 73.2529 4.31641 74.1611 5.11914C75.0752 5.92187 75.5322 7.12598 75.5322 8.73145V9.41699C75.5322 11.6729 75.0547 13.3662 74.0996 14.4971C73.1445 15.6279 71.7119 16.1934 69.8018 16.1934ZM72.8955 9.11816C72.8955 7.84668 72.6348 6.87988 72.1133 6.21777C71.5977 5.55566 70.833 5.22461 69.8193 5.22461C69.3799 5.22461 68.9609 5.2832 68.5625 5.40039C68.1699 5.51758 67.8506 5.6582 67.6045 5.82227C67.499 6.19727 67.3848 6.7627 67.2617 7.51855C67.1445 8.27441 67.0859 9.04199 67.0859 9.82129V10.9902C67.0859 12.2148 67.3701 13.1699 67.9385 13.8555C68.5127 14.541 69.2568 14.8838 70.1709 14.8838C70.6396 14.8838 71.0762 14.8193 71.4805 14.6904C71.8906 14.5615 72.1924 14.4238 72.3857 14.2773C72.5088 13.8379 72.623 13.2432 72.7285 12.4932C72.8398 11.7373 72.8955 11.002 72.8955 10.2871V9.11816ZM81.9043 8.85449C83.2578 9.61621 84.1895 10.2871 84.6992 10.8672C85.2148 11.4414 85.4727 12.1416 85.4727 12.9678C85.4727 13.9932 85.0449 14.7871 84.1895 15.3496C83.334 15.9121 82.165 16.1934 80.6826 16.1934C80.0029 16.1934 79.3496 16.1436 78.7227 16.0439C78.0957 15.9443 77.5625 15.8096 77.123 15.6396L76.9385 13.1875L78.4062 12.9678L79.1445 14.6992C79.3848 14.7578 79.6484 14.8047 79.9355 14.8398C80.2285 14.8691 80.5215 14.8838 80.8145 14.8838C81.125 14.8838 81.4355 14.8604 81.7461 14.8135C82.0566 14.7666 82.332 14.708 82.5723 14.6377C82.6426 14.4971 82.7041 14.3213 82.7568 14.1104C82.8096 13.8994 82.8359 13.6914 82.8359 13.4863C82.8359 13.0176 82.6514 12.6074 82.2822 12.2559C81.9131 11.9043 81.2393 11.4355 80.2607 10.8496C78.7666 9.98828 77.8115 9.29395 77.3955 8.7666C76.9795 8.23926 76.7686 7.62109 76.7627 6.91211C76.7627 5.96289 77.1758 5.22754 78.002 4.70605C78.834 4.17871 79.9795 3.91504 81.4385 3.91504C82.0303 3.91504 82.6104 3.95605 83.1787 4.03809C83.7529 4.12012 84.2627 4.23145 84.708 4.37207L84.8926 6.9209L83.5303 7.11426L82.8008 5.38281C82.5723 5.33008 82.3262 5.29199 82.0625 5.26855C81.8047 5.23926 81.5498 5.22461 81.2979 5.22461C81.0049 5.22461 80.7119 5.24512 80.4189 5.28613C80.126 5.32715 79.8418 5.38867 79.5664 5.4707C79.5195 5.62305 79.4785 5.79297 79.4434 5.98047C79.4141 6.16797 79.3994 6.34668 79.3994 6.5166C79.3994 6.88574 79.543 7.20801 79.8301 7.4834C80.123 7.75879 80.8145 8.21582 81.9043 8.85449Z" fill="#F9F9F9"/>
</svg>
