<svg width="26" height="25" viewBox="0 0 26 25" fill="none" xmlns="http://www.w3.org/2000/svg">
<path d="M23.3223 8.31297C23.3223 6.55491 22.0056 5.14065 20.3787 5.14065C18.175 5.03908 15.9275 5.00001 13.6323 5.00001H12.9163C10.6251 5.00001 8.37362 5.03908 6.1699 5.14065C4.54695 5.14065 3.23029 6.56273 3.23029 8.32078C3.13085 9.7116 3.08709 11.1024 3.09107 12.4932C3.08709 13.8841 3.13085 15.2749 3.22631 16.6696C3.22631 18.4276 4.54297 19.8536 6.16593 19.8536C8.48102 19.9591 10.8558 20.006 13.2703 20.0021C15.6888 20.0099 18.0556 19.963 20.3747 19.8536C22.0016 19.8536 23.3183 18.4276 23.3183 16.6696C23.4138 15.2749 23.4575 13.8841 23.4535 12.4893C23.4615 11.0985 23.4177 9.70769 23.3223 8.31297ZM11.3252 16.3258V8.64895L17.093 12.4854L11.3252 16.3258Z" fill="white"/>
</svg>
